# xmcd
#
# Track frame offsets:
#	150
#	15816
#	32118
#	40591
#	56079
#	66871
#	75090
#	84112
#	97124
#	108036
#	121891
#	136932
#	149817
#	169837
#	178272
#	187236
#	201785
#	219279
#	229170
#	246166
#	255877
#	266701
#	280744
#	291732
#	300177
#
# Disc length: 4106 seconds
#
# Revision: 1
# Processed by: cddbd v1.5.2PL0 Copyright (c) Steve Scherf et al.
# Submitted via: audiograbber 1.83.01
#
DISCID=5b100819
DTITLE=Various Artist - The Sound of Canadian Country 1967-2002
DYEAR=1900
DGENRE=Country
TTITLE0=Roy MacCaull - Oh Canada It's Good to be Home
TTITLE1=Jean Pardy - Send Me a Miracle
TTITLE2=Shot Jackson and Bob Lucier - Straight Ahead
TTITLE3=Smiley Bates - Don't Tell Jeannie I'm Blind
TTITLE4=The Newman Sisters - I'll Carry Your Picture
TTITLE5=Graham Townsend - Liberty Two Step
TTITLE6=Donna Moon - Not So Far Away
TTITLE7=Allan Capson - Man of Virtue
TTITLE8=Maple Street - Man in a Travelling Band
TTITLE9=Donna Moon - Not So Far Away
TTITLE10=Bobby Munro - Country Soul
TTITLE11=Country Rebels - Rebels You Rest
TTITLE12=Roy Payne - Last of the Reasons
TTITLE13=Diane Leigh - Trouble in My Soul
TTITLE14=Rocky from the Rock - Turn Off the Lights and Love Me Tonight
TTITLE15=Joyce Seamone - Testing 1,2,3
TTITLE16=Eddie Coffey - My Sweet-Forget-Me-Not
TTITLE17=Brian Barron - Happy Little Indian
TTITLE18=Nock Dolan - Will You Love Me When I'm Old
TTITLE19=Marg Osburne - Little White Frame Church
TTITLE20=Shell Dalton - Mama's Bible
TTITLE21=Honey West - In the Shadows of the Past
TTITLE22=Douglas Michael - So Long to the Girl I Adore
TTITLE23=Smiley Bates - Bent River Boogie
TTITLE24=Bob Lucier - The Sizzler
EXTD=
EXTT0=
EXTT1=
EXTT2=
EXTT3=
EXTT4=
EXTT5=
EXTT6=
EXTT7=
EXTT8=
EXTT9=
EXTT10=
EXTT11=
EXTT12=
EXTT13=
EXTT14=
EXTT15=
EXTT16=
EXTT17=
EXTT18=
EXTT19=
EXTT20=
EXTT21=
EXTT22=
EXTT23=
EXTT24=
PLAYORDER=
